<svg width="197" height="88" viewBox="0 0 197 88" fill="none" xmlns="http://www.w3.org/2000/svg">
  <path
    d="M84.608 71.0215C81.0812 71.0215 77.8585 70.1581 74.9398 68.4312C72.0454 66.7043 69.7348 64.3815 68.0079 61.4628C66.281 58.5441 65.4175 55.3092 65.4175 51.7581C65.4175 49.107 65.9162 46.6261 66.9134 44.3154C67.9106 42.0048 69.2848 39.9739 71.036 38.2226C72.8116 36.4471 74.8547 35.0607 77.1653 34.0635C79.476 33.0663 81.9568 32.5677 84.608 32.5677C86.943 32.5677 88.9861 33.0906 90.7373 34.1365C92.4885 35.158 93.9478 36.4957 95.1153 38.1497V33.5162H104.017V88.2419H95.1153V65.4395C93.9478 67.0935 92.4885 68.4434 90.7373 69.4892C88.9861 70.5108 86.943 71.0215 84.608 71.0215ZM84.7175 41.1413C82.8446 41.1413 81.1299 41.6278 79.5732 42.6007C78.0409 43.5493 76.8126 44.8262 75.8884 46.4315C74.9884 48.0368 74.5385 49.8123 74.5385 51.7581C74.5385 53.7282 74.9884 55.5281 75.8884 57.1577C76.8126 58.763 78.0409 60.0399 79.5732 60.9885C81.1299 61.9371 82.8446 62.4114 84.7175 62.4114C86.6146 62.4114 88.2807 61.9371 89.7157 60.9885C91.1751 60.0156 92.3182 58.7265 93.1452 57.1212C93.9722 55.4916 94.3856 53.7039 94.3856 51.7581C94.3856 49.8123 93.9722 48.0368 93.1452 46.4315C92.3182 44.8262 91.1751 43.5493 89.7157 42.6007C88.2564 41.6278 86.5903 41.1413 84.7175 41.1413ZM109.865 70V15.2744H118.767V70H109.865ZM158.037 46.9423V70H149.135V49.2772C149.135 47.8422 148.783 46.5409 148.077 45.3735C147.372 44.1817 146.423 43.2452 145.231 42.5642C144.064 41.8589 142.763 41.5062 141.328 41.5062C139.893 41.5062 138.579 41.8589 137.387 42.5642C136.22 43.2452 135.284 44.1817 134.578 45.3735C133.897 46.5409 133.557 47.8422 133.557 49.2772V70H124.655L124.618 33.5162H133.52L133.557 36.7633C134.797 35.4499 136.281 34.4162 138.008 33.6622C139.735 32.8839 141.595 32.4947 143.59 32.4947C146.241 32.4947 148.661 33.1514 150.85 34.4648C153.039 35.7539 154.778 37.493 156.067 39.682C157.381 41.8467 158.037 44.2668 158.037 46.9423ZM195.181 70H184.929L176.611 55.6619L171.503 61.7547V70H162.601V15.2744H171.503V47.9273L183.579 33.5162H195.218L182.704 48.4381L195.181 70Z"
    fill="currentColor" />
  <path d="M22.0984 36.9082L3 36.9082L3 65.5557L22.0984 65.5557" stroke="currentColor"
    stroke-width="8" stroke-linecap="square" />
  <path d="M38.3313 36.9082L57.4297 36.9082L57.4297 65.5557L38.3313 65.5557" stroke="currentColor"
    stroke-width="8" stroke-linecap="square" />
  <path d="M13.2559 51.4609L46.678 51.4609" stroke="currentColor" stroke-width="8" />
</svg>
  