<svg width="188" height="88" viewBox="0 0 188 88" fill="none" xmlns="http://www.w3.org/2000/svg">
<path d="M90.2265 59.0184L98.2529 63.36C96.5747 65.6463 94.4708 67.4826 91.9412 68.869C89.4117 70.2554 86.6511 70.9486 83.6594 70.9486C80.3029 70.9486 77.2383 70.0851 74.4655 68.3582C71.7171 66.6313 69.5159 64.3207 67.862 61.4263C66.2323 58.5076 65.4175 55.2849 65.4175 51.7581C65.4175 49.0826 65.8918 46.5896 66.8404 44.2789C67.789 41.944 69.0902 39.9009 70.7442 38.1497C72.4224 36.3741 74.3682 34.9877 76.5816 33.9905C78.7949 32.9933 81.1542 32.4947 83.6594 32.4947C86.6511 32.4947 89.4117 33.1879 91.9412 34.5743C94.4708 35.9606 96.5747 37.8213 98.2529 40.1563L90.2265 44.4614C89.3752 43.4885 88.3658 42.7345 87.1983 42.1994C86.0552 41.6643 84.8755 41.3967 83.6594 41.3967C81.9082 41.3967 80.3272 41.8832 78.9165 42.8561C77.5058 43.8047 76.387 45.0694 75.56 46.6504C74.7331 48.207 74.3196 49.9096 74.3196 51.7581C74.3196 53.5823 74.7331 55.2849 75.56 56.8658C76.387 58.4225 77.5058 59.6751 78.9165 60.6237C80.3272 61.5723 81.9082 62.0465 83.6594 62.0465C84.9242 62.0465 86.1282 61.779 87.2713 61.2439C88.4145 60.6845 89.3995 59.9426 90.2265 59.0184ZM100.744 70V15.2744H109.646V70H100.744ZM148.916 46.9423V70H140.014V49.2772C140.014 47.8422 139.662 46.5409 138.956 45.3735C138.251 44.1817 137.302 43.2452 136.111 42.5642C134.943 41.8589 133.642 41.5062 132.207 41.5062C130.772 41.5062 129.458 41.8589 128.267 42.5642C127.099 43.2452 126.163 44.1817 125.457 45.3735C124.776 46.5409 124.436 47.8422 124.436 49.2772V70H115.534L115.497 33.5162H124.399L124.436 36.7633C125.676 35.4499 127.16 34.4162 128.887 33.6622C130.614 32.8839 132.474 32.4947 134.469 32.4947C137.12 32.4947 139.54 33.1514 141.729 34.4648C143.918 35.7539 145.657 37.493 146.946 39.682C148.26 41.8467 148.916 44.2668 148.916 46.9423ZM186.06 70H175.808L167.49 55.6619L162.382 61.7547V70H153.48V15.2744H162.382V47.9273L174.458 33.5162H186.097L173.583 48.4381L186.06 70Z" fill="#059669"/>
<path d="M22.0984 36.9082L3 36.9082L3 65.5557L22.0984 65.5557" stroke="#059669" stroke-width="8" stroke-linecap="square"/>
<path d="M38.3313 36.9082L57.4297 36.9082L57.4297 65.5557L38.3313 65.5557" stroke="#059669" stroke-width="8" stroke-linecap="square"/>
<path d="M13.2559 51.4609L46.678 51.4609" stroke="#059669" stroke-width="8"/>
</svg>
