<svg width="267" height="267" viewBox="0 0 267 267" fill="none" xmlns="http://www.w3.org/2000/svg">
  <path
    d="M133.5 -5.83547e-06C207.23 -9.05831e-06 267 59.77 267 133.5C267 207.23 207.23 267 133.5 267C59.77 267 -2.61263e-06 207.23 -5.83547e-06 133.5C-9.05831e-06 59.77 59.77 -2.61263e-06 133.5 -5.83547e-06ZM133.5 226.95C185.111 226.95 226.95 185.111 226.95 133.5C226.95 81.889 185.111 40.05 133.5 40.05C81.889 40.05 40.05 81.889 40.05 133.5C40.05 185.111 81.889 226.95 133.5 226.95Z"
    fill="currentColor" fill-opacity="0.3" />
  <path
    d="M66.75 17.8856C36.0871 35.5888 13.7127 64.7477 4.54889 98.9477L43.2342 109.313C49.6489 85.3734 65.311 64.9622 86.775 52.5699L66.75 17.8856Z"
    fill="currentColor" />
</svg>
  